<svg id="Capa_1" data-name="Capa 1" xmlns="http://www.w3.org/2000/svg" viewBox="0 0 298 298"><defs><style>.cls-1,.cls-2{fill:#080060;}.cls-1{stroke:#000;stroke-miterlimit:10;}</style></defs><line class="cls-1" x1="114.5" y1="298" x2="114.5" y2="297.96"/><path class="cls-2" d="M334.58,296.85c21.1,28.87,37.58,59.74,50.79,91.64a0,0,0,0,1-.07.05q-28.85-34.64-58.54-67.89L301,399l-49.53,0,40.76-116.2q-14-15-28.21-29.77a0,0,0,0,1,0,0h0L216,399h-.5l-49,0h0l0-.07a2.17,2.17,0,0,0,0-.26v-.17c0-.4,0-.79,0-1.18A57.66,57.66,0,0,0,166,391a65.26,65.26,0,0,0-64.76-57.22H101v-49h.25a114.08,114.08,0,0,1,89.94,43.78L229.85,218.3Q206.68,195.23,183,173a443.11,443.11,0,0,1,52.36,29.59L271,101h43L271.7,229.62l0,.06a0,0,0,0,1,.07,0,380.6,380.6,0,0,1,29.48,27.49L356,101h43Z" transform="translate(-101 -101)"/><line class="cls-1" x1="114.5" y1="298" x2="114.5" y2="297.96"/><line class="cls-1" x1="0.47" y1="55.62" x2="0.46" y2="55.62"/><path class="cls-1" d="M159.82,101.08" transform="translate(-101 -101)"/><path class="cls-2" d="M211,156l-42.42,7a6.77,6.77,0,0,0-5.59,5.59L156,211l-7-42.42a6.77,6.77,0,0,0-5.59-5.59L101,156l42.42-7a6.77,6.77,0,0,0,5.59-5.59L156,101l7,42.42a6.77,6.77,0,0,0,5.59,5.59Z" transform="translate(-101 -101)"/></svg>